<svg width="36" height="59" viewBox="0 0 36 59" fill="none" xmlns="http://www.w3.org/2000/svg">
<g id="Group 1">
<path id="C" d="M20.064 47.576C16.64 47.576 13.536 46.84 10.752 45.368C8 43.864 5.824 41.8 4.224 39.176C2.656 36.52 1.872 33.528 1.872 30.2C1.872 26.872 2.656 23.896 4.224 21.272C5.824 18.616 8 16.552 10.752 15.08C13.536 13.576 16.656 12.824 20.112 12.824C23.024 12.824 25.648 13.336 27.984 14.36C30.352 15.384 32.336 16.856 33.936 18.776L28.944 23.384C26.672 20.76 23.856 19.448 20.496 19.448C18.416 19.448 16.56 19.912 14.928 20.84C13.296 21.736 12.016 23 11.088 24.632C10.192 26.264 9.744 28.12 9.744 30.2C9.744 32.28 10.192 34.136 11.088 35.768C12.016 37.4 13.296 38.68 14.928 39.608C16.56 40.504 18.416 40.952 20.496 40.952C23.856 40.952 26.672 39.624 28.944 36.968L33.936 41.576C32.336 43.528 30.352 45.016 27.984 46.04C25.616 47.064 22.976 47.576 20.064 47.576Z" fill="white"/>
<path id="U" d="M20.456 43.288C18.056 43.288 16.184 42.624 14.84 41.296C13.512 39.968 12.848 38.072 12.848 35.608V26.2H16.736V35.464C16.736 38.472 17.984 39.976 20.48 39.976C21.696 39.976 22.624 39.616 23.264 38.896C23.904 38.16 24.224 37.016 24.224 35.464V26.2H28.064V35.608C28.064 38.072 27.392 39.968 26.048 41.296C24.72 42.624 22.856 43.288 20.456 43.288Z" fill="white"/>
</g>
</svg>
